<svg xmlns="http://www.w3.org/2000/svg" width="25.0809" height="23.7988" viewBox="0 0 25.0809 23.7988">
  <title>ic-shopping_cart_arrow</title>
  <g id="Ebene_2" data-name="Ebene 2">
    <g id="ic-shopping_cart_arrow">
      <path d="M18.3916,23.7988a2.5049,2.5049,0,1,1,2.5049-2.5049A2.5082,2.5082,0,0,1,18.3916,23.7988Zm0-4.01a1.5049,1.5049,0,1,0,1.5049,1.5049A1.5062,1.5062,0,0,0,18.3916,19.7891Z"/>
      <path d="M10.2705,23.7988a2.5049,2.5049,0,1,1,2.5039-2.5049A2.5078,2.5078,0,0,1,10.2705,23.7988Zm0-4.01a1.5049,1.5049,0,1,0,1.5039,1.5049A1.5065,1.5065,0,0,0,10.2705,19.7891Z"/>
      <path d="M14.9063,11.6846a.5.5,0,0,1-.5-.5V2.0229L12.29,4.3276a.5.5,0,1,1-.7363-.6768L14.9063,0l3.3525,3.6509a.5.5,0,0,1-.7363.6768L15.4063,2.0229v9.1616A.5.5,0,0,1,14.9063,11.6846Z"/>
      <path d="M24.6963,4.791a.4981.4981,0,0,0-.6016.3711c-.4922,2.0713-1.6943,6.9614-1.6914,6.9619-.0928.2627-.1387.3945-.8105.3945H6.6124C5.7166,8.0954,4.4681,1.8809,4.46,1.85,4.1641.8018,3.6294.81,2.0386.8433,1.63.8511,1.1255.8608.5.8608a.5.5,0,0,0,0,1c.6333,0,1.144-.01,1.5581-.0181a5.8219,5.8219,0,0,1,1.3511.041.6423.6423,0,0,1,.08.2007S5.3472,11.332,6.1675,15.3506a2.0614,2.0614,0,0,0,2.01,1.6357h13.51a.5.5,0,0,0,0-1H8.1772a1.0735,1.0735,0,0,1-1.0415-.8916c-.0939-.46-.2031-.9965-.3207-1.5762H21.5928a1.5968,1.5968,0,0,0,1.7676-1.11s1.2129-4.9316,1.707-7.0156A.5.5,0,0,0,24.6963,4.791Z"/>
    </g>
  </g>
</svg>
