<svg xmlns="http://www.w3.org/2000/svg" viewBox="0 0 30 30">
    <defs>
        <style>
            .cls-1 {
                fill-rule: evenodd;
            }

            .cls-2 {
                fill: #7C8B9C;
            }
            
            .cls-2:hover {
                fill: #009164;
            }
        </style>
    </defs>
    <title>ic-xing</title>
    <g id="Ebene_2" data-name="Ebene 2">
        <g id="ic-xing">
            <g id="ic-xing-line">
                <path id="inner" class="cls-1" d="M14.11,13.66l-2.2,3.93a.66.66,0,0,1-.56.4h-2A.29.29,0,0,1,9,17.85a.3.3,0,0,1,0-.31l2.17-3.86s0,0,0,0L9.83,11.26a.28.28,0,0,1,0-.32.29.29,0,0,1,.27-.13h2a.65.65,0,0,1,.57.39ZM21,8.45a.29.29,0,0,0,0-.32A.28.28,0,0,0,20.75,8H18.69a.63.63,0,0,0-.55.39l-4.55,8.12,2.9,5.36a.63.63,0,0,0,.57.39h2a.28.28,0,0,0,.27-.45l-2.88-5.3h0Z" />
                <path id="outer" class="cls-2" d="M15,30A15,15,0,1,1,30,15,15,15,0,0,1,15,30ZM15,1A14,14,0,1,0,29,15,14,14,0,0,0,15,1Z" />
            </g>
        </g>
    </g>
</svg>