<svg id="e813a861-989a-4258-ab6e-b3f760172562" xmlns="http://www.w3.org/2000/svg" viewBox="0 0 30 30">
    <defs>
        <style>
            .cls-1 {
                fill-rule: evenodd;
            }

            .cls-2 {
                fill: #7C8B9C;
            }
            
            .cls-2:hover {
                fill: #009164;
            }
        </style>
    </defs>
    <title>ic-youtube</title>
    <g id="Ebene_2" data-name="Ebene 2">
        <g id="ic-youtube">
            <g id="ic-youtube-line">
                <path id="inner" class="cls-1" d="M22.4,11.21A2,2,0,0,0,21,9.81a46.83,46.83,0,0,0-6.15-.33,47.2,47.2,0,0,0-6.15.34,2,2,0,0,0-1.4,1.4A20.3,20.3,0,0,0,7,15a20,20,0,0,0,.34,3.8,2,2,0,0,0,1.4,1.4,46.83,46.83,0,0,0,6.15.33A46.83,46.83,0,0,0,21,20.2a2,2,0,0,0,1.4-1.4,20.53,20.53,0,0,0,.33-3.8A20.76,20.76,0,0,0,22.4,11.21Zm-9.12,6.16V12.64L17.37,15Z" />
                <path id="outer" class="cls-2" d="M15,30A15,15,0,1,1,30,15,15,15,0,0,1,15,30ZM15,1A14,14,0,1,0,29,15,14,14,0,0,0,15,1Z" />
            </g>
        </g>
    </g>
</svg>